<svg width="92" height="15" viewBox="0 0 92 15" fill="none" xmlns="http://www.w3.org/2000/svg">
<path d="M4.29195 5.42H10.792V8.38H4.29195V5.42ZM4.57195 10.94H11.892V14H0.651953V-9.53674e-07H11.632V3.06H4.57195V10.94ZM14.0895 14V-9.53674e-07H20.7095C22.2561 -9.53674e-07 23.6161 0.286666 24.7895 0.86C25.9628 1.43333 26.8761 2.24 27.5295 3.28C28.1961 4.32 28.5295 5.56 28.5295 7C28.5295 8.42667 28.1961 9.66667 27.5295 10.72C26.8761 11.76 25.9628 12.5667 24.7895 13.14C23.6161 13.7133 22.2561 14 20.7095 14H14.0895ZM18.0495 10.84H20.5495C21.3495 10.84 22.0428 10.6933 22.6295 10.4C23.2295 10.0933 23.6961 9.65333 24.0295 9.08C24.3628 8.49333 24.5295 7.8 24.5295 7C24.5295 6.18667 24.3628 5.49333 24.0295 4.92C23.6961 4.34667 23.2295 3.91333 22.6295 3.62C22.0428 3.31333 21.3495 3.16 20.5495 3.16H18.0495V10.84ZM34.2529 5.42H40.7529V8.38H34.2529V5.42ZM34.5329 10.94H41.8529V14H30.6129V-9.53674e-07H41.5929V3.06H34.5329V10.94ZM44.0504 14V-9.53674e-07H47.3104L55.0304 9.32H53.4904V-9.53674e-07H57.3704V14H54.1104L46.3904 4.68H47.9304V14H44.0504ZM61.5837 14.18C60.9437 14.18 60.4037 13.9667 59.9637 13.54C59.5237 13.1133 59.3037 12.5733 59.3037 11.92C59.3037 11.24 59.5237 10.7 59.9637 10.3C60.4037 9.88667 60.9437 9.68 61.5837 9.68C62.2237 9.68 62.7637 9.88667 63.2037 10.3C63.6437 10.7 63.8637 11.24 63.8637 11.92C63.8637 12.5733 63.6437 13.1133 63.2037 13.54C62.7637 13.9667 62.2237 14.18 61.5837 14.18ZM69.968 14L76.148 -9.53674e-07H80.048L86.248 14H82.128L77.288 1.94H78.848L74.008 14H69.968ZM73.348 11.28L74.368 8.36H81.208L82.228 11.28H73.348ZM87.3707 14V-9.53674e-07H91.3307V14H87.3707Z" fill="url(#paint0_radial_287_1470)"/>
<defs>
<radialGradient id="paint0_radial_287_1470" cx="0" cy="0" r="1" gradientUnits="userSpaceOnUse" gradientTransform="translate(-1 19) rotate(-14.3227) scale(97.0155 82.7843)">
<stop stop-color="#9E6FF7"/>
<stop offset="0.337153" stop-color="#FF93E7"/>
<stop offset="0.650306" stop-color="#4CADEA"/>
<stop offset="1" stop-color="#009AFA"/>
</radialGradient>
</defs>
</svg>
