<svg width="24" height="24" viewBox="0 0 24 24" fill="none" xmlns="http://www.w3.org/2000/svg">
<path d="M12 11.2501C11.5858 11.2501 11.25 11.5859 11.25 12.0001C11.25 12.4144 11.5858 12.7501 12 12.7501V11.2501ZM12.0098 12.7501C12.424 12.7501 12.7598 12.4144 12.7598 12.0001C12.7598 11.5859 12.424 11.2501 12.0098 11.2501V12.7501ZM14.0895 3.23941C13.6753 3.23941 13.3395 3.57519 13.3395 3.98941C13.3395 4.40362 13.6753 4.73941 14.0895 4.73941V3.23941ZM14.0993 4.73941C14.5135 4.73941 14.8493 4.40362 14.8493 3.98941C14.8493 3.57519 14.5135 3.23941 14.0993 3.23941V4.73941ZM15.4895 17.2394C15.0753 17.2394 14.7395 17.5752 14.7395 17.9894C14.7395 18.4036 15.0753 18.7394 15.4895 18.7394V17.2394ZM15.4993 18.7394C15.9135 18.7394 16.2493 18.4036 16.2493 17.9894C16.2493 17.5752 15.9135 17.2394 15.4993 17.2394V18.7394ZM4.08951 13.7394C3.67529 13.7394 3.33951 14.0752 3.33951 14.4894C3.33951 14.9036 3.67529 15.2394 4.08951 15.2394V13.7394ZM4.09929 15.2394C4.51351 15.2394 4.84929 14.9036 4.84929 14.4894C4.84929 14.0752 4.51351 13.7394 4.09929 13.7394V15.2394ZM12.0001 2.75C12.4143 2.75 12.7501 2.41421 12.7501 2C12.7501 1.58579 12.4143 1.25 12.0001 1.25V2.75ZM20.124 6.99999L19.4645 7.35716V7.35716L20.124 6.99999ZM3.87623 6.99999L3.21674 6.64282H3.21674L3.87623 6.99999ZM7.4813 6L7.58733 5.25753L7.58733 5.25753L7.4813 6ZM13.8762 8.53589L14.2693 7.89717H14.2693L13.8762 8.53589ZM19.3616 13.5L19.9863 13.0849L19.3616 13.5ZM20.124 17L19.4645 16.6428V16.6428L20.124 17ZM8.34326 14.2507L9.09048 14.1862L8.34326 14.2507ZM14.3752 21.2632C14.6137 20.9245 14.5325 20.4566 14.1938 20.2181C13.8552 19.9796 13.3873 20.0608 13.1488 20.3995L14.3752 21.2632ZM18.6473 17.2078C18.2492 17.3222 18.0192 17.7377 18.1336 18.1358C18.248 18.5339 18.6635 18.7639 19.0616 18.6495L18.6473 17.2078ZM4.76752 16.9207C4.44757 16.6576 3.97494 16.7037 3.71187 17.0237C3.44879 17.3436 3.4949 17.8162 3.81484 18.0793L4.76752 16.9207ZM12 12.7501H12.0098V11.2501H12V12.7501ZM11.7394 12.0001C11.7394 11.8562 11.8561 11.7396 12 11.7396V13.2396C12.6845 13.2396 13.2394 12.6847 13.2394 12.0001H11.7394ZM12 11.7396C12.1439 11.7396 12.2606 11.8562 12.2606 12.0001H10.7606C10.7606 12.6847 11.3155 13.2396 12 13.2396V11.7396ZM12.2606 12.0001C12.2606 12.1441 12.1439 12.2607 12 12.2607V10.7607C11.3155 10.7607 10.7606 11.3156 10.7606 12.0001H12.2606ZM12 12.2607C11.8561 12.2607 11.7394 12.1441 11.7394 12.0001H13.2394C13.2394 11.3156 12.6845 10.7607 12 10.7607V12.2607ZM14.0895 4.73941H14.0993V3.23941H14.0895V4.73941ZM13.8289 3.98941C13.8289 3.84548 13.9456 3.72881 14.0895 3.72881V5.22881C14.774 5.22881 15.3289 4.67391 15.3289 3.98941H13.8289ZM14.0895 3.72881C14.2334 3.72881 14.3501 3.84548 14.3501 3.98941H12.8501C12.8501 4.67392 13.405 5.22881 14.0895 5.22881V3.72881ZM14.3501 3.98941C14.3501 4.13333 14.2334 4.25 14.0895 4.25V2.75C13.405 2.75 12.8501 3.3049 12.8501 3.98941H14.3501ZM14.0895 4.25C13.9456 4.25 13.8289 4.13333 13.8289 3.98941H15.3289C15.3289 3.3049 14.774 2.75 14.0895 2.75V4.25ZM15.4895 18.7394H15.4993V17.2394H15.4895V18.7394ZM15.2289 17.9894C15.2289 17.8455 15.3456 17.7288 15.4895 17.7288V19.2288C16.174 19.2288 16.7289 18.6739 16.7289 17.9894H15.2289ZM15.4895 17.7288C15.6334 17.7288 15.7501 17.8455 15.7501 17.9894H14.2501C14.2501 18.6739 14.805 19.2288 15.4895 19.2288V17.7288ZM15.7501 17.9894C15.7501 18.1333 15.6334 18.25 15.4895 18.25V16.75C14.805 16.75 14.2501 17.3049 14.2501 17.9894H15.7501ZM15.4895 18.25C15.3456 18.25 15.2289 18.1333 15.2289 17.9894H16.7289C16.7289 17.3049 16.174 16.75 15.4895 16.75V18.25ZM4.08951 15.2394H4.09929V13.7394H4.08951V15.2394ZM3.82891 14.4894C3.82891 14.3455 3.94558 14.2288 4.08951 14.2288V15.7288C4.77401 15.7288 5.32891 15.1739 5.32891 14.4894H3.82891ZM4.08951 14.2288C4.23342 14.2288 4.3501 14.3455 4.3501 14.4894H2.8501C2.8501 15.1739 3.405 15.7288 4.08951 15.7288V14.2288ZM4.3501 14.4894C4.3501 14.6333 4.23342 14.75 4.08951 14.75V13.25C3.405 13.25 2.8501 13.8049 2.8501 14.4894H4.3501ZM4.08951 14.75C3.94558 14.75 3.82891 14.6333 3.82891 14.4894H5.32891C5.32891 13.8049 4.77401 13.25 4.08951 13.25V14.75ZM8.99784 12C8.99784 9.93844 9.23851 8.03996 9.64127 6.49357L8.1897 6.1155C7.75058 7.80149 7.49784 9.82872 7.49784 12H8.99784ZM9.64127 6.49357C9.96731 5.24176 10.3897 4.25891 10.8466 3.60743C11.3155 2.93889 11.7206 2.75 12.0001 2.75V1.25C11.0014 1.25 10.203 1.91273 9.61851 2.74613C9.02204 3.5966 8.54118 4.76601 8.1897 6.1155L9.64127 6.49357ZM19.4645 7.35716C19.6323 7.66708 19.663 8.17724 19.356 8.94023C19.0542 9.69021 18.4675 10.5694 17.6177 11.4918L18.7209 12.5082C19.6456 11.5044 20.3558 10.4736 20.7475 9.50016C21.134 8.53969 21.2547 7.51292 20.7835 6.64282L19.4645 7.35716ZM17.6177 11.4918C16.567 12.6323 15.1508 13.799 13.4831 14.8254L14.2693 16.1028C16.0404 15.0128 17.5666 13.7611 18.7209 12.5082L17.6177 11.4918ZM4.53572 7.35716C4.66475 7.11892 4.9221 6.90607 5.40199 6.77861C5.88986 6.64903 6.5552 6.62536 7.37528 6.74247L7.58733 5.25753C6.64754 5.12333 5.76453 5.13031 5.01694 5.32887C4.26136 5.52955 3.5961 5.94235 3.21674 6.64282L4.53572 7.35716ZM13.4831 9.17461C15.1508 10.201 16.567 11.3676 17.6177 12.5082L18.7209 11.4918C17.5666 10.2389 16.0404 8.98718 14.2693 7.89717L13.4831 9.17461ZM17.6177 12.5082C18.0617 12.9901 18.4367 13.4633 18.737 13.9151L19.9863 13.0849C19.6359 12.5576 19.2099 12.0226 18.7209 11.4918L17.6177 12.5082ZM18.737 13.9151C19.1612 14.5535 19.4213 15.1266 19.5302 15.6051C19.6387 16.0811 19.5883 16.4141 19.4645 16.6428L20.7835 17.3572C21.1307 16.7161 21.1553 15.9853 20.9928 15.272C20.8309 14.561 20.4742 13.819 19.9863 13.0849L18.737 13.9151ZM8.79463 13.6517C7.13789 12.4032 5.87093 11.0665 5.1316 9.88052C4.35796 8.63951 4.29642 7.79899 4.53572 7.35716L3.21674 6.64282C2.56507 7.84607 3.02972 9.3443 3.85868 10.6741C4.72195 12.0588 6.13399 13.5249 7.89189 14.8496L8.79463 13.6517ZM12.0001 21.25C11.7206 21.25 11.3155 21.0611 10.8466 20.3926C10.3897 19.7411 9.96731 18.7582 9.64127 17.5064L8.1897 17.8845C8.54118 19.234 9.02203 20.4034 9.61851 21.2539C10.203 22.0873 11.0014 22.75 12.0001 22.75V21.25ZM9.64127 17.5064C9.38614 16.5269 9.19561 15.4043 9.09048 14.1862L7.59604 14.3151C7.70751 15.6068 7.91079 16.8136 8.1897 17.8845L9.64127 17.5064ZM9.09048 14.1862C9.02993 13.4846 8.99784 12.7527 8.99784 12H7.49784C7.49784 12.7951 7.53173 13.57 7.59604 14.3151L9.09048 14.1862ZM7.37528 6.74247C7.79253 6.80205 8.24166 6.89691 8.71639 7.02762L9.11459 5.58144C8.58646 5.43602 8.07488 5.32715 7.58733 5.25753L7.37528 6.74247ZM8.71639 7.02762C9.63191 7.27971 10.6325 7.66238 11.6694 8.17179L12.3308 6.82549C11.2205 6.27998 10.1318 5.86153 9.11459 5.58144L8.71639 7.02762ZM11.6694 8.17179C12.2665 8.46517 12.8742 8.79987 13.4831 9.17461L14.2693 7.89717C13.6208 7.498 12.9715 7.14024 12.3308 6.82549L11.6694 8.17179ZM12.3308 8.17179C14.173 7.26673 15.8843 6.76959 17.2024 6.68104C18.5804 6.58846 19.2414 6.94527 19.4645 7.35716L20.7835 6.64282C20.1156 5.40963 18.6135 5.08285 17.1018 5.18441C15.5301 5.29001 13.6249 5.86473 11.6694 6.82549L12.3308 8.17179ZM13.1488 20.3995C12.6817 21.0626 12.2785 21.25 12.0001 21.25V22.75C12.9953 22.75 13.7915 22.0919 14.3752 21.2632L13.1488 20.3995ZM19.4645 16.6428C19.3396 16.8734 19.0956 17.079 18.6473 17.2078L19.0616 18.6495C19.7848 18.4416 20.4176 18.0327 20.7835 17.3572L19.4645 16.6428ZM13.4831 14.8254C11.8151 15.852 10.162 16.5743 8.71638 16.9724L9.11458 18.4185C10.7159 17.9776 12.4986 17.1926 14.2693 16.1028L13.4831 14.8254ZM8.71638 16.9724C7.74074 17.241 6.8825 17.3556 6.1902 17.3297C5.48769 17.3035 5.02966 17.1362 4.76752 16.9207L3.81484 18.0793C4.42738 18.583 5.25594 18.7958 6.13414 18.8287C7.02255 18.8619 8.03912 18.7147 9.11458 18.4185L8.71638 16.9724Z" fill="#4CADEA"/>
</svg>
