<svg width="24" height="24" viewBox="0 0 24 24" fill="none" xmlns="http://www.w3.org/2000/svg">
<path fill-rule="evenodd" clip-rule="evenodd" d="M6.35724 4C6.77145 4 7.10724 4.33579 7.10724 4.75V10.1087C7.39404 10.2153 7.66297 10.3852 7.89281 10.6183L12 14.7854L15.9531 10.7747C16.284 10.439 16.6883 10.2225 17.114 10.1252V4.75C17.114 4.33579 17.4498 4 17.864 4C18.2783 4 18.614 4.33579 18.614 4.75V10.1382C18.614 10.1827 18.6102 10.2263 18.6027 10.2686C18.8677 10.3862 19.1158 10.5549 19.3324 10.7747L20.3675 11.8249C22.2108 13.695 22.2108 16.7227 20.3675 18.5929C18.5183 20.469 15.5155 20.469 13.6662 18.5929L12 16.9024L10.3338 18.5929C8.48452 20.469 5.48173 20.469 3.63248 18.5929C1.78917 16.7227 1.78917 13.695 3.63248 11.8249L4.82167 10.6183C5.0515 10.3852 5.32043 10.2153 5.60724 10.1087V4.75C5.60724 4.33579 5.94303 4 6.35724 4Z" fill="#4CADEA"/>
</svg>
