<svg width="24" height="24" viewBox="0 0 24 24" fill="none" xmlns="http://www.w3.org/2000/svg">
<path fill-rule="evenodd" clip-rule="evenodd" d="M12.1941 2.25203C10.9811 2.2268 9.77464 2.43714 8.64362 2.87126C7.51257 3.3054 6.47869 3.95498 5.60128 4.78346C4.72384 5.61196 4.02004 6.60319 3.53062 7.70087C3.04118 8.79857 2.77588 9.98091 2.75017 11.1803L2.75 11.1964C2.75 12.5847 3.02782 13.9592 3.56727 15.2411C4.10672 16.523 4.89706 17.6869 5.89256 18.6665C6.88803 19.646 8.06914 20.4222 9.36808 20.951C10.667 21.4799 12.0586 21.7513 13.4635 21.75C13.7449 21.7497 14.0025 21.5919 14.1306 21.3414C14.2587 21.0908 14.2357 20.7896 14.0711 20.5613C13.991 20.4502 13.9404 20.3222 13.923 20.1888C13.9056 20.0555 13.9218 19.9198 13.9704 19.7935C14.019 19.6671 14.0989 19.5532 14.2041 19.4625C14.3067 19.3741 14.4303 19.3104 14.5646 19.2779C16.3869 18.9216 18.0372 17.9725 19.2498 16.5801C20.4658 15.1837 21.1703 13.4228 21.2474 11.5812L21.2479 11.5659C21.2736 10.3665 21.0592 9.17411 20.6172 8.05691C20.1752 6.93973 19.5144 5.91998 18.6731 5.0556C17.8319 4.19124 16.8266 3.49917 15.715 3.01836C14.6035 2.53755 13.4071 2.27725 12.1941 2.25203ZM7.5 10.25C6.80964 10.25 6.25 10.8096 6.25 11.5C6.25 12.1904 6.80964 12.75 7.5 12.75C8.19036 12.75 8.75 12.1904 8.75 11.5C8.75 10.8096 8.19036 10.25 7.5 10.25ZM12 10.25C11.3096 10.25 10.75 10.8096 10.75 11.5C10.75 12.1904 11.3096 12.75 12 12.75C12.6904 12.75 13.25 12.1904 13.25 11.5C13.25 10.8096 12.6904 10.25 12 10.25ZM16.5 10.25C15.8096 10.25 15.25 10.8096 15.25 11.5C15.25 12.1904 15.8096 12.75 16.5 12.75C17.1904 12.75 17.75 12.1904 17.75 11.5C17.75 10.8096 17.1904 10.25 16.5 10.25Z" fill="#4CADEA"/>
</svg>
