<svg width="24" height="24" viewBox="0 0 24 24" fill="none" xmlns="http://www.w3.org/2000/svg">
<path fill-rule="evenodd" clip-rule="evenodd" d="M9.47216 1.25H9.52784C10.6691 1.25 11.564 1.24999 12.2868 1.29931C13.0223 1.3495 13.6344 1.45323 14.2004 1.68769C15.6093 2.27128 16.7287 3.39066 17.3123 4.79957C17.5468 5.36562 17.6505 5.9777 17.7007 6.71317C17.75 7.43603 17.75 8.33087 17.75 9.47215V14.5278C17.75 15.6449 17.75 16.5258 17.7038 17.2405C17.7802 17.4484 17.7633 17.6863 17.6431 17.886C17.581 18.3666 17.4801 18.7953 17.3123 19.2004C16.7287 20.6093 15.6093 21.7287 14.2004 22.3123C13.6344 22.5468 13.0223 22.6505 12.2868 22.7007C11.564 22.75 10.6691 22.75 9.52785 22.75H9.47215C8.33087 22.75 7.43603 22.75 6.71317 22.7007C5.9777 22.6505 5.36562 22.5468 4.79957 22.3123C3.39066 21.7287 2.27128 20.6093 1.68769 19.2004C1.45323 18.6344 1.3495 18.0223 1.29931 17.2868C1.24999 16.564 1.25 15.6691 1.25 14.5278V9.47216C1.25 8.33087 1.24999 7.43604 1.29931 6.71317C1.3495 5.9777 1.45323 5.36562 1.68769 4.79957C2.27128 3.39066 3.39066 2.27128 4.79957 1.68769C5.36562 1.45323 5.9777 1.3495 6.71317 1.29931C7.43604 1.24999 8.33087 1.25 9.47216 1.25ZM16.2446 15.9959C16.2499 15.5638 16.25 15.071 16.25 14.5V9.5C16.25 8.32488 16.2496 7.48111 16.2042 6.81528C16.1592 6.15618 16.0726 5.72641 15.9265 5.3736C15.4951 4.33223 14.6678 3.50486 13.6264 3.07351C13.2736 2.92737 12.8438 2.84081 12.1847 2.79584C11.5189 2.75041 10.6751 2.75 9.5 2.75C8.32488 2.75 7.48111 2.75041 6.81528 2.79584C6.15618 2.84081 5.72641 2.92737 5.3736 3.07351C4.33223 3.50486 3.50486 4.33223 3.07351 5.3736C2.92737 5.72641 2.84081 6.15618 2.79584 6.81528C2.75041 7.48111 2.75 8.32488 2.75 9.5V12.957L4.404 10.8304C5.20714 9.79777 6.81798 9.97928 7.37119 11.1647L9.62266 15.9893C9.69263 16.1392 9.8863 16.1811 10.0119 16.0734L11.9029 14.4526C12.5256 13.9188 13.4356 13.8892 14.0917 14.3813L16.2446 15.9959ZM18.25 5C18.25 4.58579 18.5858 4.25 19 4.25C21.0711 4.25 22.75 5.92893 22.75 8V16C22.75 18.0711 21.0711 19.75 19 19.75C18.5858 19.75 18.25 19.4142 18.25 19C18.25 18.5858 18.5858 18.25 19 18.25C20.2426 18.25 21.25 17.2426 21.25 16V8C21.25 6.75736 20.2426 5.75 19 5.75C18.5858 5.75 18.25 5.41421 18.25 5ZM10.25 8C10.25 7.0335 11.0335 6.25 12 6.25C12.9665 6.25 13.75 7.0335 13.75 8C13.75 8.9665 12.9665 9.75 12 9.75C11.0335 9.75 10.25 8.9665 10.25 8Z" fill="#4CADEA"/>
</svg>
