<svg width="24" height="24" viewBox="0 0 24 24" fill="none" xmlns="http://www.w3.org/2000/svg">
<path fill-rule="evenodd" clip-rule="evenodd" d="M14.0336 3.25H9.96644C8.59472 3.25 7.51929 3.24999 6.65494 3.32061C5.77479 3.39252 5.04769 3.54138 4.38955 3.87671C3.30762 4.42798 2.42798 5.30762 1.87671 6.38955C1.54138 7.04769 1.39252 7.77479 1.32061 8.65494C1.24999 9.51929 1.25 10.5947 1.25 11.9664V12.0336C1.25 13.4053 1.24999 14.4807 1.32061 15.3451C1.39252 16.2252 1.54138 16.9523 1.87671 17.6104C2.42798 18.6924 3.30762 19.572 4.38955 20.1233C5.04769 20.4586 5.77479 20.6075 6.65494 20.6794C7.51925 20.75 8.59463 20.75 9.96626 20.75H14.0336C15.4052 20.75 16.4808 20.75 17.3451 20.6794C18.2252 20.6075 18.9523 20.4586 19.6104 20.1233C20.6924 19.572 21.572 18.6924 22.1233 17.6104C22.4586 16.9523 22.6075 16.2252 22.6794 15.3451C22.75 14.4807 22.75 13.4053 22.75 12.0336V11.9664C22.75 10.5947 22.75 9.51927 22.6794 8.65494C22.6075 7.77479 22.4586 7.04769 22.1233 6.38955C21.572 5.30762 20.6924 4.42798 19.6104 3.87671C18.9523 3.54138 18.2252 3.39252 17.3451 3.32061C16.4807 3.24999 15.4053 3.25 14.0336 3.25ZM8.0004 7.25C6.69294 7.25 5.65116 8.32203 5.65041 9.62178C5.6463 10.9184 6.68128 11.992 7.98614 11.9964H8.0004C9.30821 11.9964 10.3504 10.9241 10.3504 9.62319C10.3504 8.3228 9.30834 7.25 8.0004 7.25ZM13 9.75C12.5858 9.75 12.25 10.0858 12.25 10.5C12.25 10.9142 12.5858 11.25 13 11.25H19C19.4142 11.25 19.75 10.9142 19.75 10.5C19.75 10.0858 19.4142 9.75 19 9.75H13ZM13 12.75C12.5858 12.75 12.25 13.0858 12.25 13.5C12.25 13.9142 12.5858 14.25 13 14.25H16C16.4142 14.25 16.75 13.9142 16.75 13.5C16.75 13.0858 16.4142 12.75 16 12.75H13ZM8 13.1196C7.02557 13.1196 6.19359 13.3886 5.54587 13.8814C4.89994 14.3729 4.48162 15.0533 4.27663 15.8019C4.21487 16.0275 4.26187 16.269 4.40375 16.4549C4.54562 16.6409 4.76612 16.75 5.00001 16.75L11 16.75C11.2339 16.75 11.4544 16.6409 11.5963 16.4549C11.7381 16.269 11.7851 16.0275 11.7234 15.8019C11.5184 15.0533 11.1001 14.3729 10.4541 13.8814C9.80643 13.3886 8.97443 13.1196 8 13.1196Z" fill="#4CADEA"/>
</svg>
