<svg width="24" height="24" viewBox="0 0 24 24" fill="none" xmlns="http://www.w3.org/2000/svg">
<path fill-rule="evenodd" clip-rule="evenodd" d="M10.9884 2.70051C11.6865 1.72483 13.1369 1.72483 13.835 2.70051L16.3397 6.20151C16.3687 6.24211 16.4093 6.27309 16.4561 6.29044L20.449 7.77113C21.5019 8.1616 21.9198 9.42871 21.3057 10.3689L18.8535 14.1233C18.8279 14.1625 18.8138 14.2081 18.8128 14.2549L18.721 18.7648C18.6971 19.9352 17.553 20.7527 16.438 20.3959L12.4879 19.1319C12.4383 19.1161 12.3851 19.1161 12.3355 19.1319L8.38541 20.3959C7.27041 20.7527 6.12629 19.9352 6.10245 18.7648L6.01058 14.2549C6.00963 14.2081 5.99555 14.1625 5.96994 14.1233L3.51774 10.3689C2.90362 9.42871 3.32148 8.1616 4.37443 7.77113L8.36734 6.29044C8.41415 6.27309 8.45469 6.24211 8.48374 6.20151L10.9884 2.70051Z" fill="#4CADEA"/>
</svg>
